inDegrees=no
num_controls=7
num_derivatives=13
num_iterations=94
num_multipliers=7
num_parameters=0
num_slacks=7
num_states=26
objective=0.444918
objective_accelerations=0.058680
objective_balance=0.003719
objective_effort=0.023597
objective_height=0.353430
objective_ligament=0.005492
solver_duration=1383.395350
status=Solve_Succeeded
success=true
DataType=double
version=3
OpenSimVersion=4.5
endheader
time	/jointset/ground_pelvis/pelvis_tilt/value	/jointset/ground_pelvis/pelvis_tx/value	/jointset/ground_pelvis/pelvis_ty/value	/jointset/hip_l/hip_flexion_l/value	/jointset/hip_l/hip_adduction_l/value	/jointset/hip_l/hip_rotation_l/value	/jointset/back/lumbar_extension/value	/jointset/patellofemoral_l/patellar_flexion_l/value	/jointset/knee_l/knee_flexion_l/value	/jointset/knee_l/knee_adduction_l/value	/jointset/knee_l/knee_rotation_l/value	/jointset/ankle_l/ankle_angle_l/value	/jointset/subtalar_l/subtalar_angle_l/value	/jointset/ground_pelvis/pelvis_tilt/speed	/jointset/ground_pelvis/pelvis_tx/speed	/jointset/ground_pelvis/pelvis_ty/speed	/jointset/hip_l/hip_flexion_l/speed	/jointset/hip_l/hip_adduction_l/speed	/jointset/hip_l/hip_rotation_l/speed	/jointset/back/lumbar_extension/speed	/jointset/patellofemoral_l/patellar_flexion_l/speed	/jointset/knee_l/knee_flexion_l/speed	/jointset/knee_l/knee_adduction_l/speed	/jointset/knee_l/knee_rotation_l/speed	/jointset/ankle_l/ankle_angle_l/speed	/jointset/subtalar_l/subtalar_angle_l/speed	/forceset/tau_hip_flexion_l	/forceset/tau_hip_adduction_l	/forceset/tau_hip_rotation_l	/forceset/tau_knee_flexion_l	/forceset/tau_ankle_angle_l	/forceset/tau_subtalar_angle_l	/forceset/tau_lumbar_extension	lambda_cid13_p0	lambda_cid13_p1	lambda_cid13_p2	lambda_cid13_p3	lambda_cid13_p4	lambda_cid13_p5	lambda_cid14_p0	/jointset/ground_pelvis/pelvis_tilt/accel	/jointset/ground_pelvis/pelvis_tx/accel	/jointset/ground_pelvis/pelvis_ty/accel	/jointset/hip_l/hip_flexion_l/accel	/jointset/hip_l/hip_adduction_l/accel	/jointset/hip_l/hip_rotation_l/accel	/jointset/back/lumbar_extension/accel	/jointset/patellofemoral_l/patellar_flexion_l/accel	/jointset/knee_l/knee_flexion_l/accel	/jointset/knee_l/knee_adduction_l/accel	/jointset/knee_l/knee_rotation_l/accel	/jointset/ankle_l/ankle_angle_l/accel	/jointset/subtalar_l/subtalar_angle_l/accel	gamma_cid13_p0	gamma_cid13_p1	gamma_cid13_p2	gamma_cid13_p3	gamma_cid13_p4	gamma_cid13_p5	gamma_cid14_p0
0	-0.03891684139936134	0.06864465887243382	0.8959263187049843	0.1955287580552426	-0.322262173470103	-0.4782829597233595	-0.1379045077516729	0.07015288079085456	0.07015288079084844	-0.1745325720573	-0.113004665303915	-0.06701059314715049	0.003486954464891037	0	0	0	0	0	0	0	0	0	0	0	0	0	0.1015366790756978	-0.0969526098228596	-0.02745151035361376	-0.2209981766716224	0.1695007789779346	-0.009378755119796354	-0.04838926487600017	18.96297039208776	-2.2443563027504	3.445498790248231	5.636332746482488	-514.7994751686649	-84.21760840458852	-39.78782310487315	-4.541531596623962	-1.992059110120546	-0.9930819858188403	12.89524416011468	-2.078600640539108	3.343763156608659	-2.841359939524412	10.3016781010384	10.3016781010406	0.741376135595004	-0.8898521189852363	2.177554484302496	-1.097273437284988	-1.886473861863425e-08	1.213980841165518e-07	1.058009488143758e-07	8.942485520192813e-09	-1.120531626544589e-08	-2.586664167124692e-08	-2.977776060625052e-09
0.01	-0.03913384848109508	0.06854674607241482	0.8958780837741538	0.1961526850426617	-0.3223645988158586	-0.4781149483373336	-0.1380524607074624	0.07065361702595661	0.07065361702597482	-0.1744990668229372	-0.1130428854324875	-0.06690582859422067	0.00343146285724258	-0.04323111585951595	-0.01945619026144847	-0.009617922958305825	0.1242296103088161	-0.02039313054973588	0.03347464361649233	-0.02931721210336401	0.09973232944255608	0.09973232944255832	0.00667578396931589	-0.007592111781725467	0.02092195439126409	-0.01101519427614841	0.09863068763993607	-0.09805657978926108	-0.02709196179689335	-0.2190341437576454	0.1669481388166513	-0.006420758794984578	-0.0456594234765691	18.23494242242349	-3.343381100125114	3.554279679703546	5.057900071041005	-515.680220421385	-86.29693653332014	-39.79803710009386	-4.188366968326766	-1.903441734574476	-0.9417902107480165	12.10344065565841	-2.005907783354541	3.330158853733244	-2.93589498743651	9.746773324446156	9.746773324445035	0.6269224060250742	-0.6860942313990592	2.04487525728846	-1.091204787706734	-6.071323859532549e-08	1.562396970404637e-07	1.897244513677451e-07	4.725275560569974e-08	-2.398203806113321e-07	-7.90118223087008e-08	-9.214571942297622e-09
0.02	-0.03977805979896653	0.06825806281969739	0.8957345410617582	0.198002232371034	-0.3226682031713436	-0.4776160217372232	-0.1384853844126254	0.0721392291472253	0.07213922914722347	-0.1743995551730889	-0.1131554673835527	-0.06659277262922797	0.003268306833847282	-0.08544084722747751	-0.03815409053968986	-0.01906155631303494	0.2451240681933594	-0.04023580194601949	0.06618304281553612	-0.05699414987447728	0.1969751772283922	0.1969751772283836	0.01320128307563715	-0.01487236450877063	0.04165828241253178	-0.02153288314937713	0.09572469620402609	-0.09916054975567079	-0.02673241324049039	-0.217070110843682	0.1643954986553506	-0.003462762470187772	-0.0429295820772388	17.57063296357346	-4.454763868625844	3.666403664686616	4.328037382779001	-515.6233997859372	-88.21253495156199	-39.82809712370508	-4.337254698313002	-1.840401113479227	-0.9582240651035037	12.22821367526016	-1.968508809848693	3.19051427311895	-2.513305073074228	9.803781769694432	9.803781769694028	0.7113191629959986	-0.8274803080492035	2.1404292103031	-0.9977723567011552	-1.025617385720167e-07	1.910813099643755e-07	2.736479539211142e-07	8.556302569120667e-08	-4.684354449572184e-07	-1.321570029461547e-07	-1.545136782397019e-08
0.03	-0.04083951251036298	0.06778595854459424	0.8954971430146391	0.2010449194275445	-0.3231672601642452	-0.4767942168242362	-0.1391865848640902	0.07458506744049752	0.07458506744048063	-0.1742353014300252	-0.1133397535643345	-0.06607353141828923	0.003002551618441193	-0.1266396476407463	-0.0561608686307391	-0.02840882965254753	0.3628331551267069	-0.05946292935121596	0.09803869583335142	-0.08301041091097851	0.2917377100176621	0.2917377100176561	0.01961894269378674	-0.02193101144815958	0.06211116813392605	-0.03154021986446084	0.09153388842193241	-0.09623429798183798	-0.02609191876871969	-0.2135351969490487	0.1607013699336021	-0.003020222388229346	-0.03938267922088134	16.43980266516585	-4.508316572407083	3.742741978457219	4.409146480036091	-515.5098832002108	-87.704742540342	-39.87679209197655	-3.979697245474122	-1.764914512297532	-0.9216900604316463	11.4552087127204	-1.882965055969382	3.162169066684688	-2.610457192712887	9.24427643791215	9.244276437912893	0.6024743283097468	-0.6369454459596605	1.985899175239548	-0.9905843141115402	-1.313586625672449e-07	2.092828073568745e-07	3.329567471004863e-07	1.12589721207119e-07	-6.387023845301926e-07	-1.698450800853339e-07	-1.974934260458101e-08
0.04	-0.04230665413242062	0.06713696681750411	0.8951665300157139	0.2052472878554652	-0.3238552185012238	-0.4756580397309629	-0.1401408820406737	0.07796488854253128	0.07796488854253017	-0.1740077740973811	-0.1135930039263391	-0.0653521251657002	0.002639049038844392	-0.1665786293596301	-0.07353158093708444	-0.03770454667429355	0.4770603424739716	-0.07801607076098584	0.129057478874041	-0.1076134948984575	0.3837717389816905	0.3837717389816969	0.0258560009953517	-0.02866520075058723	0.08209129074259931	-0.04108235598752698	0.08734308063996786	-0.09330804620799693	-0.02545142429683996	-0.2100002830543411	0.1570072412118949	-0.002577682306240836	-0.03583577636445744	15.36717552110062	-4.572173349799556	3.820852787224543	4.347512211628011	-514.5439730004566	-87.04252664274129	-39.94259160764997	-4.085290959435913	-1.713187956538556	-0.9479128015501899	11.53183375804361	-1.833711610763362	3.023140277693807	-2.230669663269735	9.258081004646135	9.258081004647734	0.6751988996790906	-0.762588780656973	2.045876587758784	-0.9047322382977034	-1.598864819030614e-07	2.271412095837774e-07	3.917580204989511e-07	1.393837657009779e-07	-8.077662699841378e-07	-2.072144540596002e-07	-2.400734169238643e-08
0.05	-0.04416780061835444	0.06631746931406242	0.8947429213108737	0.2105761470133958	-0.3247252649431412	-0.4742160193041302	-0.1413332975111955	0.08225237272560483	0.0822523727256103	-0.1737184271203455	-0.1139124597027097	-0.0644328862098185	0.002182734238542625	-0.2054514912950788	-0.09025593062260337	-0.0470267084503707	0.5881485693684783	-0.09586890312995548	0.1592148201040828	-0.1306318702748182	0.4732714743130656	0.4732714743130715	0.03198681080590039	-0.0351629788518485	0.1016817956384247	-0.05008923123976693	0.08297140815156986	-0.09050967240220453	-0.02483499072537572	-0.2072641369474355	0.1541221653212099	-0.002100369917849133	-0.03220933087911529	14.54739034606389	-4.681825942451082	3.890756516696792	4.164801265123324	-513.6768117432795	-86.41211339560807	-40.02356039548205	-3.758418631630264	-1.635232012303267	-0.9259579085593803	10.81285480325634	-1.74248479201184	2.992210523209696	-2.301762135058706	8.727881135040068	8.727881135038952	0.578117104888533	-0.583876276117428	1.904429482812934	-0.8850388924705591	-1.781158509303576e-07	2.289232257742901e-07	4.289894696176829e-07	1.57070705784544e-07	-9.147748051894866e-07	-2.324665016641772e-07	-2.714469361632266e-08
0.06	-0.04641170268784987	0.06533409360621613	0.8942257729796882	0.216998995969896	-0.3257701228571587	-0.4724763895694896	-0.1427487648675272	0.0874212465295441	0.08742124652954231	-0.1733685530285679	-0.1142949940503069	-0.06331998379651479	0.001639075940961805	-0.2431297460717619	-0.1063072218180041	-0.05641247194334555	0.6958583021870581	-0.1129783651808475	0.18857934043614	-0.1522238720607431	0.5600496631507179	0.560049663150716	0.03796142394228172	-0.04128091500338307	0.1208239822269906	-0.05855105544334386	0.07859973566325439	-0.08771129859641609	-0.02421855715409336	-0.2045279908404503	0.1512370894305484	-0.001623057529446859	-0.02858288539372095	13.77967121496546	-4.800243650016515	3.961656775732342	3.852585074951291	-512.0472610900285	-85.64096613265544	-40.11752551713381	-3.846369527682701	-1.578576258515034	-0.9606331449297312	10.8561349428583	-1.685037547147822	2.864576098096887	-1.945394945182553	8.713771705901621	8.713771705901719	0.6439595648456462	-0.6866203907116626	1.956212926306771	-0.7957220285651531	-1.95911600997295e-07	2.300283415001128e-07	4.653127156088469e-07	1.743741888403083e-07	-1.019170483542263e-06	-2.572083460531883e-07	-3.023486039651703e-08
0.07000000000000001	-0.04902714631235582	0.0641934680751849	0.8936141980550277	0.224483671406338	-0.3269823635978089	-0.4704474350855667	-0.1443723756276335	0.09344542465641477	0.09344542465641371	-0.1729594297150086	-0.1147375728219359	-0.06201758766895039	0.001013683376606009	-0.2797468127601057	-0.1217115982645082	-0.06592574733067817	0.8005168030422478	-0.1293383943663899	0.2170749959100015	-0.1722838998183181	0.6443343519981997	0.6443343519982043	0.04383459685565953	-0.04717748525337789	0.1395704916089493	-0.06643490846540312	0.07371986448260824	-0.08511517898007398	-0.02350951374385394	-0.2016866603763505	0.1475839583213225	-0.0005672913149113704	-0.0246543025723325	12.77235316662227	-5.119039181549383	4.05434488787159	3.780094197035404	-510.5690243159212	-85.30680718958628	-40.22203683881302	-3.537560224165708	-1.505390334898636	-0.9503649864262226	10.18668393871959	-1.591845293719562	2.821512235621729	-2.004149669606417	8.21808202480951	8.218082024810242	0.5547908204720768	-0.5325103168777767	1.821153339647441	-0.7709226005500521	-2.023724767786695e-07	2.079582971796186e-07	4.782935554352775e-07	1.803283935491782e-07	-1.066438449945719e-06	-2.698162966788452e-07	-3.261111239921273e-08
0.08	-0.05200239760069705	0.06290199438025212	0.8929067523263358	0.2329981271077081	-0.3283542765682079	-0.4681376336541883	-0.1461901552610267	0.100298902581894	0.1002989025818929	-0.1724924157391374	-0.1152373842909999	-0.06053026976846492	0.0003122111497249054	-0.3150912788386627	-0.1364768545983183	-0.07558663274964361	0.9018143551722405	-0.1449128111304163	0.2447487299275014	-0.1910576467183372	0.7259096228712062	0.7259096228712106	0.04953955640456768	-0.05272745449275069	0.1578083368111887	-0.07376698794841248	0.0688399933020104	-0.08251905936373378	-0.02280047033366898	-0.1988453299122155	0.1439308272121085	0.0004884748996291276	-0.02072571975091031	11.81062477837306	-5.445066425808314	4.147328720094033	3.593675591133461	-508.419312783661	-84.84780135261708	-40.3345014653213	-3.591849405725232	-1.450752235976341	-0.9901551512562919	10.18394519781895	-1.527915062844599	2.700191806824563	-1.688138773671342	8.171888111006622	8.171888111005341	0.6103168919517485	-0.6173001885872902	1.854480090362792	-0.6853673207552304	-2.08102070348072e-07	1.84393081243233e-07	4.897684335736608e-07	1.855503867517968e-07	-1.110020757513735e-06	-2.816414154488019e-07	-3.494130538400528e-08
0.09	-0.05532565304114809	0.06146599943939762	0.8921017334078417	0.242510512851002	-0.3298780960418045	-0.4655554854805444	-0.1481883347963232	0.1079557500178912	0.107955750017898	-0.1719690162886141	-0.1157916763965524	-0.05886276443190175	-0.0004597333834427957	-0.3493525628919403	-0.15061767399437	-0.08545164363121885	1.00011706620288	-0.1597198050929723	0.2715522139374553	-0.208362310276016	0.8050097884193816	0.8050097884193438	0.0550999269881659	-0.05806789678084061	0.1756005949533659	-0.08053437940754152	0.06357082277538119	-0.07952651424777517	-0.02204257699033315	-0.1960822139647944	0.1401625963372228	0.001459073575752589	-0.01655144341836591	10.78954468961342	-5.728296303849532	4.238724049780602	3.553599134251097	-506.5162990221087	-84.26677465836744	-40.45216003380428	-3.312187500554702	-1.380040660533521	-0.9900706674328472	9.571550465165348	-1.437462110607881	2.651053309765381	-1.719237636959297	7.711576416233001	7.711576416227399	0.5229212792980535	-0.4828865168460101	1.72777324230788	-0.6593772015657737	-2.067913781559124e-07	1.485229492575244e-07	4.897976827100217e-07	1.8249362504168e-07	-1.108207988415202e-06	-2.864450434557616e-07	-3.73664219592114e-08
